<svg width="60" height="58" viewBox="0 0 60 58" fill="none" xmlns="http://www.w3.org/2000/svg">
<path d="M59.0002 20.0003H52.9432L59.9372 1.35126C60.0301 1.10275 60.0204 0.827546 59.9103 0.586187C59.8002 0.344827 59.5987 0.157084 59.3502 0.0642584C59.2272 0.0182958 59.0963 -0.00298073 58.965 0.00164398C58.8337 0.00626868 58.7047 0.0367036 58.5852 0.0912116C58.3438 0.201295 58.1561 0.40275 58.0632 0.651258L50.8072 20.0003H39.0002V16.0003H44.0002C44.2655 16.0003 44.5198 15.8949 44.7073 15.7074C44.8949 15.5198 45.0002 15.2655 45.0002 15.0003V9.00026C44.9981 7.14439 44.2599 5.36515 42.9476 4.05285C41.6354 2.74055 39.8561 2.00238 38.0002 2.00026H22.0002C20.1444 2.00238 18.3651 2.74055 17.0528 4.05285C15.7405 5.36515 15.0024 7.14439 15.0002 9.00026V15.0003C15.0002 15.2655 15.1056 15.5198 15.2931 15.7074C15.4807 15.8949 15.735 16.0003 16.0002 16.0003H21.0002V20.0003H9.19323L1.93723 0.649258C1.89127 0.52621 1.82152 0.413419 1.73197 0.317326C1.64242 0.221233 1.53482 0.14372 1.41531 0.0892118C1.17395 -0.0208721 0.898743 -0.0305677 0.650235 0.0622581C0.527186 0.108221 0.414395 0.17797 0.318302 0.267522C0.22221 0.357075 0.144696 0.464677 0.0901883 0.584186C-0.0198955 0.825546 -0.0295911 1.10075 0.0632346 1.34926L7.05723 20.0003H1.00023C0.735018 20.0003 0.480664 20.1056 0.293128 20.2931C0.105591 20.4807 0.000234685 20.735 0.000234685 21.0003V29.0003C0.000234685 29.2655 0.105591 29.5198 0.293128 29.7074C0.480664 29.8949 0.735018 30.0003 1.00023 30.0003H4.06923L6.00023 57.0713C6.01822 57.324 6.13147 57.5605 6.31709 57.7329C6.50271 57.9053 6.74687 58.0009 7.00023 58.0003H53.0002C53.2536 58.0009 53.4978 57.9053 53.6834 57.7329C53.869 57.5605 53.9822 57.324 54.0002 57.0713L55.9312 30.0003H59.0002C59.2655 30.0003 59.5198 29.8949 59.7073 29.7074C59.8949 29.5198 60.0002 29.2655 60.0002 29.0003V21.0003C60.0002 20.735 59.8949 20.4807 59.7073 20.2931C59.5198 20.1056 59.2655 20.0003 59.0002 20.0003ZM43.0002 9.00026V14.0003H39.0002V4.10026C40.1289 4.33218 41.1431 4.94622 41.8717 5.83882C42.6004 6.73143 42.999 7.848 43.0002 9.00026ZM17.0002 14.0003V9.00026C17.0015 7.848 17.4001 6.73143 18.1287 5.83882C18.8574 4.94622 19.8716 4.33218 21.0002 4.10026V14.0003H17.0002ZM23.0002 4.00026H37.0002V20.0003H23.0002V4.00026ZM6.07423 30.0003H13.0002V56.0003H7.93123L6.07423 30.0003ZM15.0002 56.0003V30.0003H23.0002V56.0003H15.0002ZM35.0002 30.0003V56.0003H25.0002V30.0003H35.0002ZM37.0002 56.0003V30.0003H45.0002V56.0003H37.0002ZM52.0692 56.0003H47.0002V30.0003H53.9262L52.0692 56.0003ZM58.0002 28.0003H2.00023V22.0003H7.80723L9.06323 25.3513C9.13473 25.542 9.26277 25.7063 9.43022 25.8223C9.59767 25.9383 9.79654 26.0004 10.0002 26.0003C10.12 25.9998 10.2388 25.9785 10.3512 25.9373C10.4743 25.8912 10.5871 25.8214 10.6832 25.7317C10.7793 25.6421 10.8568 25.5343 10.9112 25.4147C10.9656 25.2951 10.9959 25.1659 11.0004 25.0346C11.0049 24.9032 10.9834 24.7723 10.9372 24.6493L9.94323 22.0003H50.0572L49.0632 24.6493C49.0171 24.7723 48.9956 24.9032 49.0001 25.0346C49.0045 25.1659 49.0348 25.2951 49.0893 25.4147C49.1437 25.5343 49.2212 25.6421 49.3172 25.7317C49.4133 25.8214 49.5261 25.8912 49.6492 25.9373C49.7617 25.9785 49.8805 25.9998 50.0002 26.0003C50.2039 26.0004 50.4028 25.9383 50.5703 25.8223C50.7377 25.7063 50.8657 25.542 50.9372 25.3513L52.1932 22.0003H58.0002V28.0003Z" fill="#FFF9E9"/>
<path d="M34 6C33.7348 6 33.4804 6.10536 33.2929 6.29289C33.1054 6.48043 33 6.73478 33 7V11C33 11.2652 33.1054 11.5196 33.2929 11.7071C33.4804 11.8946 33.7348 12 34 12C34.2652 12 34.5196 11.8946 34.7071 11.7071C34.8946 11.5196 35 11.2652 35 11V7C35 6.73478 34.8946 6.48043 34.7071 6.29289C34.5196 6.10536 34.2652 6 34 6Z" fill="#FFF9E9"/>
<path d="M27 11V7C27 6.73478 26.8946 6.48043 26.7071 6.29289C26.5196 6.10536 26.2652 6 26 6C25.7348 6 25.4804 6.10536 25.2929 6.29289C25.1054 6.48043 25 6.73478 25 7V11C25 11.2652 25.1054 11.5196 25.2929 11.7071C25.4804 11.8946 25.7348 12 26 12C26.2652 12 26.5196 11.8946 26.7071 11.7071C26.8946 11.5196 27 11.2652 27 11Z" fill="#FFF9E9"/>
<path d="M30 13C27.757 13 26 14.318 26 16C26 17.682 27.757 19 30 19C32.243 19 34 17.682 34 16C34 14.318 32.243 13 30 13ZM30 17C28.779 17 28 16.408 28 16C28 15.592 28.779 15 30 15C31.221 15 32 15.592 32 16C32 16.408 31.221 17 30 17Z" fill="#FFF9E9"/>
</svg>
