<?xml version="1.0" standalone="no"?>
<!DOCTYPE svg PUBLIC "-//W3C//DTD SVG 20010904//EN"
 "http://www.w3.org/TR/2001/REC-SVG-20010904/DTD/svg10.dtd">
<svg version="1.0" xmlns="http://www.w3.org/2000/svg"
 width="512.000000pt" height="512.000000pt" viewBox="0 0 512.000000 512.000000"
 preserveAspectRatio="xMidYMid meet">

<g transform="translate(0.000000,512.000000) scale(0.100000,-0.100000)"
fill="#FF6933" stroke="none">
<path d="M2541 4309 c-343 -42 -636 -252 -786 -562 -59 -123 -85 -227 -92
-364 l-6 -112 36 -36 36 -36 529 3 530 3 26 24 c14 13 30 39 37 58 9 28 7 40
-11 77 -36 76 -37 76 -516 76 l-417 0 7 41 c11 71 65 194 115 265 132 189 324
299 564 326 209 22 353 -18 459 -130 101 -105 128 -188 128 -390 0 -154 11
-191 65 -216 18 -9 56 -16 83 -16 l51 0 3 -272 c3 -272 3 -273 30 -330 91
-194 326 -274 505 -172 66 38 101 72 152 148 27 39 61 78 76 86 23 12 86 15
364 15 l336 0 -1 -116 c-3 -255 -64 -377 -214 -424 -46 -15 -115 -19 -410 -25
-346 -7 -357 -8 -445 -34 -49 -15 -114 -41 -144 -59 -172 -103 -300 -359 -360
-719 -38 -231 -44 -326 -45 -716 l-1 -384 -24 -19 c-33 -27 -92 -25 -118 4
-12 12 -31 60 -43 107 -47 177 -155 356 -304 506 -205 205 -436 319 -721 355
-129 16 -524 6 -620 -15 -181 -41 -372 -127 -532 -239 -49 -34 -150 -124 -225
-200 -106 -106 -143 -137 -163 -137 -34 0 -85 50 -85 84 0 48 304 680 420 873
24 39 63 97 86 129 24 32 47 73 50 90 8 43 -18 100 -58 124 -88 54 -150 4
-294 -237 -118 -195 -392 -763 -429 -886 -47 -157 23 -315 170 -387 41 -20 65
-25 135 -25 124 0 168 24 299 165 206 220 421 345 703 407 67 14 129 18 313
18 205 0 239 -2 318 -22 219 -56 399 -170 533 -338 81 -101 135 -205 169 -324
33 -117 55 -161 106 -212 125 -125 333 -125 458 0 22 22 50 59 63 83 22 42 23
51 25 348 2 379 8 540 28 700 43 347 134 586 253 661 86 54 153 63 502 65 356
1 415 9 538 70 131 64 217 174 262 334 38 139 54 512 24 575 -28 60 -53 65
-317 65 l-236 0 -16 57 c-50 170 -172 317 -326 391 -129 62 -196 72 -492 72
l-254 0 -7 93 c-8 122 -27 193 -78 297 -80 163 -249 298 -433 345 -74 19 -265
27 -364 14z m1394 -1165 c35 -16 65 -65 65 -104 0 -12 -7 -37 -16 -55 -16 -35
-65 -65 -104 -65 -12 0 -37 7 -55 16 -35 16 -65 65 -65 104 0 38 30 88 63 104
41 20 71 20 112 0z"/>
<path d="M259 3297 c-38 -26 -59 -60 -59 -98 0 -30 211 -544 267 -651 124
-236 386 -404 663 -424 116 -9 138 -21 184 -100 72 -126 175 -200 310 -225 52
-10 80 -10 132 0 107 19 173 59 284 172 124 124 153 138 308 150 231 17 400
89 550 233 157 150 253 351 256 538 1 75 0 79 -32 110 -28 28 -39 33 -82 33
-42 0 -54 -5 -80 -30 -25 -25 -32 -45 -45 -117 -8 -48 -24 -112 -36 -142 -48
-129 -167 -259 -294 -322 -127 -63 -142 -64 -836 -64 -591 0 -630 1 -703 20
-141 36 -259 117 -337 231 -23 34 -91 181 -159 346 -66 157 -127 297 -136 311
-16 25 -70 52 -102 52 -11 0 -34 -10 -53 -23z"/>
<path d="M3877 1705 c-21 -7 -40 -15 -41 -17 -27 -35 -36 -60 -36 -96 0 -37 6
-50 34 -78 25 -25 43 -34 68 -34 52 0 160 -26 212 -51 107 -50 239 -211 240
-293 0 -31 -6 -44 -33 -68 -47 -42 -97 -35 -155 21 -49 48 -88 59 -139 37 -65
-27 -94 -104 -63 -164 21 -39 94 -106 146 -133 39 -21 59 -24 145 -24 96 0
103 1 165 36 111 61 175 171 173 299 -1 78 -16 122 -73 215 -131 216 -310 331
-555 359 -31 3 -65 0 -88 -9z"/>
<path d="M1492 740 c-19 -12 -40 -37 -49 -58 -15 -35 -14 -43 16 -163 17 -70
31 -141 31 -158 0 -65 -80 -105 -129 -63 -11 9 -48 75 -80 147 -33 72 -71 142
-86 157 -56 59 -151 42 -189 -35 -24 -49 -18 -71 68 -252 72 -150 114 -203
194 -242 80 -39 192 -40 272 -2 78 36 124 80 159 150 48 96 49 142 7 313 -41
169 -46 180 -89 206 -41 25 -83 25 -125 0z"/>
</g>
</svg>
